<svg xmlns="http://www.w3.org/2000/svg" viewBox="0 0 623 153" width="623" height="153">
  <rect width="623" height="153" fill="#0D1117"/>
  <path d="M38.40 49.40L30 49.40L30 30.92L38.40 30.92L38.40 49.40ZM46.80 49.40L38.40 49.40L38.40 30.92L46.80 30.92L46.80 49.40ZM53.10 50.80L51.70 50.80L51.70 39.32L46.52 39.32L46.52 37.92L53.10 37.92L53.10 50.80ZM50.30 50.80L48.90 50.80L48.90 42.12L46.52 42.12L46.52 40.72L50.30 40.72L50.30 50.80ZM88.80 49.40L80.40 49.40L80.40 30.92L88.80 30.92L88.80 49.40ZM97.20 49.40L88.80 49.40L88.80 30.92L97.20 30.92L97.20 49.40ZM103.50 50.80L102.10 50.80L102.10 39.32L96.92 39.32L96.92 37.92L103.50 37.92L103.50 50.80ZM100.70 50.80L99.30 50.80L99.30 42.12L96.92 42.12L96.92 40.72L100.70 40.72L100.70 50.80ZM114.00 49.40L105.60 49.40L105.60 30.92L114.00 30.92L114.00 49.40ZM122.40 49.40L114.00 49.40L114.00 30.92L122.40 30.92L122.40 49.40ZM130.80 49.40L122.40 49.40L122.40 30.92L130.80 30.92L130.80 49.40ZM139.20 49.40L130.80 49.40L130.80 30.92L139.20 30.92L139.20 49.40ZM147.60 49.40L139.20 49.40L139.20 30.92L147.60 30.92L147.60 49.40ZM156.00 49.40L147.60 49.40L147.60 30.92L156.00 30.92L156.00 49.40ZM164.40 49.40L156.00 49.40L156.00 30.92L164.40 30.92L164.40 49.40ZM170.70 50.80L169.30 50.80L169.30 39.32L164.12 39.32L164.12 37.92L170.70 37.92L170.70 50.80ZM167.90 50.80L166.50 50.80L166.50 42.12L164.12 42.12L164.12 40.72L167.90 40.72L167.90 50.80ZM181.20 49.40L172.80 49.40L172.80 30.92L181.20 30.92L181.20 49.40ZM189.60 49.40L181.20 49.40L181.20 30.92L189.60 30.92L189.60 49.40ZM198.00 49.40L189.60 49.40L189.60 30.92L198.00 30.92L198.00 49.40ZM206.40 49.40L198.00 49.40L198.00 30.92L206.40 30.92L206.40 49.40ZM214.80 49.40L206.40 49.40L206.40 30.92L214.80 30.92L214.80 49.40ZM223.20 49.40L214.80 49.40L214.80 30.92L223.20 30.92L223.20 49.40ZM229.50 50.80L228.10 50.80L228.10 39.32L222.92 39.32L222.92 37.92L229.50 37.92L229.50 50.80ZM226.70 50.80L225.30 50.80L225.30 42.12L222.92 42.12L222.92 40.72L226.70 40.72L226.70 50.80ZM248.40 49.40L240.00 49.40L240.00 30.92L248.40 30.92L248.40 49.40ZM256.80 49.40L248.40 49.40L248.40 30.92L256.80 30.92L256.80 49.40ZM265.20 49.40L256.80 49.40L256.80 30.92L265.20 30.92L265.20 49.40ZM273.60 49.40L265.20 49.40L265.20 30.92L273.60 30.92L273.60 49.40ZM282.00 49.40L273.60 49.40L273.60 30.92L282.00 30.92L282.00 49.40ZM290.40 49.40L282.00 49.40L282.00 30.92L290.40 30.92L290.40 49.40ZM298.80 49.40L290.40 49.40L290.40 30.92L298.80 30.92L298.80 49.40ZM307.20 49.40L298.80 49.40L298.80 30.92L307.20 30.92L307.20 49.40ZM313.50 50.80L312.10 50.80L312.10 39.32L306.92 39.32L306.92 37.92L313.50 37.92L313.50 50.80ZM310.70 50.80L309.30 50.80L309.30 42.12L306.92 42.12L306.92 40.72L310.70 40.72L310.70 50.80ZM332.40 49.40L324.00 49.40L324.00 30.92L332.40 30.92L332.40 49.40ZM340.80 49.40L332.40 49.40L332.40 30.92L340.80 30.92L340.80 49.40ZM349.20 49.40L340.80 49.40L340.80 30.92L349.20 30.92L349.20 49.40ZM357.60 49.40L349.20 49.40L349.20 30.92L357.60 30.92L357.60 49.40ZM366.00 49.40L357.60 49.40L357.60 30.92L366.00 30.92L366.00 49.40ZM372.30 50.80L370.90 50.80L370.90 39.32L365.72 39.32L365.72 37.92L372.30 37.92L372.30 50.80ZM369.50 50.80L368.10 50.80L368.10 42.12L365.72 42.12L365.72 40.72L369.50 40.72L369.50 50.80ZM399.60 49.40L391.20 49.40L391.20 30.92L399.60 30.92L399.60 49.40ZM408.00 49.40L399.60 49.40L399.60 30.92L408.00 30.92L408.00 49.40ZM416.40 49.40L408.00 49.40L408.00 30.92L416.40 30.92L416.40 49.40ZM424.80 49.40L416.40 49.40L416.40 30.92L424.80 30.92L424.80 49.40ZM433.20 49.40L424.80 49.40L424.80 30.92L433.20 30.92L433.20 49.40ZM439.50 50.80L438.10 50.80L438.10 39.32L432.92 39.32L432.92 37.92L439.50 37.92L439.50 50.80ZM436.70 50.80L435.30 50.80L435.30 42.12L432.92 42.12L432.92 40.72L436.70 40.72L436.70 50.80ZM458.40 49.40L450.00 49.40L450.00 30.92L458.40 30.92L458.40 49.40ZM466.80 49.40L458.40 49.40L458.40 30.92L466.80 30.92L466.80 49.40ZM473.10 50.80L471.70 50.80L471.70 39.32L466.52 39.32L466.52 37.92L473.10 37.92L473.10 50.80ZM470.30 50.80L468.90 50.80L468.90 42.12L466.52 42.12L466.52 40.72L470.30 40.72L470.30 50.80ZM508.80 49.40L500.40 49.40L500.40 30.92L508.80 30.92L508.80 49.40ZM517.20 49.40L508.80 49.40L508.80 30.92L517.20 30.92L517.20 49.40ZM523.50 50.80L522.10 50.80L522.10 39.32L516.92 39.32L516.92 37.92L523.50 37.92L523.50 50.80ZM520.70 50.80L519.30 50.80L519.30 42.12L516.92 42.12L516.92 40.72L520.70 40.72L520.70 50.80ZM534.00 49.40L525.60 49.40L525.60 30.92L534.00 30.92L534.00 49.40ZM542.40 49.40L534.00 49.40L534.00 30.92L542.40 30.92L542.40 49.40ZM548.70 50.80L547.30 50.80L547.30 39.32L542.12 39.32L542.12 37.92L548.70 37.92L548.70 50.80ZM545.90 50.80L544.50 50.80L544.50 42.12L542.12 42.12L542.12 40.72L545.90 40.72L545.90 50.80ZM576.00 49.40L567.60 49.40L567.60 30.92L576.00 30.92L576.00 49.40ZM584.40 49.40L576.00 49.40L576.00 30.92L584.40 30.92L584.40 49.40ZM590.70 50.80L589.30 50.80L589.30 39.32L584.12 39.32L584.12 37.92L590.70 37.92L590.70 50.80ZM587.90 50.80L586.50 50.80L586.50 42.12L584.12 42.12L584.12 40.72L587.90 40.72L587.90 50.80Z M38.40 65.50L30 65.50L30 47.02L38.40 47.02L38.40 65.50ZM46.80 65.50L38.40 65.50L38.40 47.02L46.80 47.02L46.80 65.50ZM53.10 66.90L51.70 66.90L51.70 45.62L53.10 45.62L53.10 66.90ZM50.30 66.90L48.90 66.90L48.90 45.62L50.30 45.62L50.30 66.90ZM88.80 65.50L80.40 65.50L80.40 47.02L88.80 47.02L88.80 65.50ZM97.20 65.50L88.80 65.50L88.80 47.02L97.20 47.02L97.20 65.50ZM103.50 66.90L102.10 66.90L102.10 45.62L103.50 45.62L103.50 66.90ZM100.70 66.90L99.30 66.90L99.30 45.62L100.70 45.62L100.70 66.90ZM114.00 65.50L105.60 65.50L105.60 47.02L114.00 47.02L114.00 65.50ZM122.40 65.50L114.00 65.50L114.00 47.02L122.40 47.02L122.40 65.50ZM125.90 66.90L124.50 66.90L124.50 54.02L131.08 54.02L131.08 55.42L125.90 55.42L125.90 66.90ZM128.70 66.90L127.30 66.90L127.30 56.82L131.08 56.82L131.08 58.22L128.70 58.22L128.70 66.90ZM139.48 55.42L130.52 55.42L130.52 54.02L139.48 54.02L139.48 55.42ZM139.48 58.22L130.52 58.22L130.52 56.82L139.48 56.82L139.48 58.22ZM147.88 55.42L138.92 55.42L138.92 54.02L147.88 54.02L147.88 55.42ZM147.88 58.22L138.92 58.22L138.92 56.82L147.88 56.82L147.88 58.22ZM156.28 55.42L147.32 55.42L147.32 54.02L156.28 54.02L156.28 55.42ZM156.28 58.22L147.32 58.22L147.32 56.82L156.28 56.82L156.28 58.22ZM164.68 55.42L155.72 55.42L155.72 54.02L164.68 54.02L164.68 55.42ZM164.68 58.22L155.72 58.22L155.72 56.82L164.68 56.82L164.68 58.22ZM170.70 58.22L164.12 58.22L164.12 56.82L169.30 56.82L169.30 45.62L170.70 45.62L170.70 58.22ZM167.90 55.42L164.12 55.42L164.12 54.02L166.50 54.02L166.50 45.62L167.90 45.62L167.90 55.42ZM181.20 65.50L172.80 65.50L172.80 47.02L181.20 47.02L181.20 65.50ZM189.60 65.50L181.20 65.50L181.20 47.02L189.60 47.02L189.60 65.50ZM193.10 66.90L191.70 66.90L191.70 54.02L198.28 54.02L198.28 55.42L193.10 55.42L193.10 66.90ZM195.90 66.90L194.50 66.90L194.50 56.82L198.28 56.82L198.28 58.22L195.90 58.22L195.90 66.90ZM206.68 55.42L197.72 55.42L197.72 54.02L206.68 54.02L206.68 55.42ZM206.68 58.22L197.72 58.22L197.72 56.82L206.68 56.82L206.68 58.22ZM215.08 55.42L206.12 55.42L206.12 54.02L215.08 54.02L215.08 55.42ZM215.08 58.22L206.12 58.22L206.12 56.82L215.08 56.82L215.08 58.22ZM223.20 65.50L214.80 65.50L214.80 47.02L223.20 47.02L223.20 65.50ZM231.60 65.50L223.20 65.50L223.20 47.02L231.60 47.02L231.60 65.50ZM237.90 66.90L236.50 66.90L236.50 55.42L231.32 55.42L231.32 54.02L237.90 54.02L237.90 66.90ZM235.10 66.90L233.70 66.90L233.70 58.22L231.32 58.22L231.32 56.82L235.10 56.82L235.10 66.90ZM248.68 58.22L242.10 58.22L242.10 45.62L243.50 45.62L243.50 56.82L248.68 56.82L248.68 58.22ZM248.68 55.42L244.90 55.42L244.90 45.62L246.30 45.62L246.30 54.02L248.68 54.02L248.68 55.42ZM257.08 55.42L248.12 55.42L248.12 54.02L257.08 54.02L257.08 55.42ZM257.08 58.22L248.12 58.22L248.12 56.82L257.08 56.82L257.08 58.22ZM265.48 55.42L256.52 55.42L256.52 54.02L265.48 54.02L265.48 55.42ZM265.48 58.22L256.52 58.22L256.52 56.82L265.48 56.82L265.48 58.22ZM273.60 65.50L265.20 65.50L265.20 47.02L273.60 47.02L273.60 65.50ZM282.00 65.50L273.60 65.50L273.60 47.02L282.00 47.02L282.00 65.50ZM285.50 66.90L284.10 66.90L284.10 54.02L290.68 54.02L290.68 55.42L285.50 55.42L285.50 66.90ZM288.30 66.90L286.90 66.90L286.90 56.82L290.68 56.82L290.68 58.22L288.30 58.22L288.30 66.90ZM299.08 55.42L290.12 55.42L290.12 54.02L299.08 54.02L299.08 55.42ZM299.08 58.22L290.12 58.22L290.12 56.82L299.08 56.82L299.08 58.22ZM307.48 55.42L298.52 55.42L298.52 54.02L307.48 54.02L307.48 55.42ZM307.48 58.22L298.52 58.22L298.52 56.82L307.48 56.82L307.48 58.22ZM313.50 58.22L306.92 58.22L306.92 56.82L312.10 56.82L312.10 45.62L313.50 45.62L313.50 58.22ZM310.70 55.42L306.92 55.42L306.92 54.02L309.30 54.02L309.30 45.62L310.70 45.62L310.70 55.42ZM324.00 65.50L315.60 65.50L315.60 47.02L324.00 47.02L324.00 65.50ZM332.40 65.50L324.00 65.50L324.00 47.02L332.40 47.02L332.40 65.50ZM335.90 66.90L334.50 66.90L334.50 54.02L341.08 54.02L341.08 55.42L335.90 55.42L335.90 66.90ZM338.70 66.90L337.30 66.90L337.30 56.82L341.08 56.82L341.08 58.22L338.70 58.22L338.70 66.90ZM349.48 55.42L340.52 55.42L340.52 54.02L349.48 54.02L349.48 55.42ZM349.48 58.22L340.52 58.22L340.52 56.82L349.48 56.82L349.48 58.22ZM357.88 55.42L348.92 55.42L348.92 54.02L357.88 54.02L357.88 55.42ZM357.88 58.22L348.92 58.22L348.92 56.82L357.88 56.82L357.88 58.22ZM366.00 65.50L357.60 65.50L357.60 47.02L366.00 47.02L366.00 65.50ZM374.40 65.50L366.00 65.50L366.00 47.02L374.40 47.02L374.40 65.50ZM380.70 66.90L379.30 66.90L379.30 55.42L374.12 55.42L374.12 54.02L380.70 54.02L380.70 66.90ZM377.90 66.90L376.50 66.90L376.50 58.22L374.12 58.22L374.12 56.82L377.90 56.82L377.90 66.90ZM391.20 65.50L382.80 65.50L382.80 47.02L391.20 47.02L391.20 65.50ZM399.60 65.50L391.20 65.50L391.20 47.02L399.60 47.02L399.60 65.50ZM403.10 66.90L401.70 66.90L401.70 54.02L408.28 54.02L408.28 55.42L403.10 55.42L403.10 66.90ZM405.90 66.90L404.50 66.90L404.50 56.82L408.28 56.82L408.28 58.22L405.90 58.22L405.90 66.90ZM416.68 55.42L407.72 55.42L407.72 54.02L416.68 54.02L416.68 55.42ZM416.68 58.22L407.72 58.22L407.72 56.82L416.68 56.82L416.68 58.22ZM425.08 55.42L416.12 55.42L416.12 54.02L425.08 54.02L425.08 55.42ZM425.08 58.22L416.12 58.22L416.12 56.82L425.08 56.82L425.08 58.22ZM433.20 65.50L424.80 65.50L424.80 47.02L433.20 47.02L433.20 65.50ZM441.60 65.50L433.20 65.50L433.20 47.02L441.60 47.02L441.60 65.50ZM447.90 66.90L446.50 66.90L446.50 55.42L441.32 55.42L441.32 54.02L447.90 54.02L447.90 66.90ZM445.10 66.90L443.70 66.90L443.70 58.22L441.32 58.22L441.32 56.82L445.10 56.82L445.10 66.90ZM458.40 65.50L450.00 65.50L450.00 47.02L458.40 47.02L458.40 65.50ZM466.80 65.50L458.40 65.50L458.40 47.02L466.80 47.02L466.80 65.50ZM473.10 66.90L471.70 66.90L471.70 45.62L473.10 45.62L473.10 66.90ZM470.30 66.90L468.90 66.90L468.90 45.62L470.30 45.62L470.30 66.90ZM508.80 65.50L500.40 65.50L500.40 47.02L508.80 47.02L508.80 65.50ZM517.20 65.50L508.80 65.50L508.80 47.02L517.20 47.02L517.20 65.50ZM523.50 66.90L522.10 66.90L522.10 45.62L523.50 45.62L523.50 66.90ZM520.70 66.90L519.30 66.90L519.30 45.62L520.70 45.62L520.70 66.90ZM534.28 58.22L527.70 58.22L527.70 45.62L529.10 45.62L529.10 56.82L534.28 56.82L534.28 58.22ZM534.28 55.42L530.50 55.42L530.50 45.62L531.90 45.62L531.90 54.02L534.28 54.02L534.28 55.42ZM542.40 65.50L534.00 65.50L534.00 47.02L542.40 47.02L542.40 65.50ZM550.80 65.50L542.40 65.50L542.40 47.02L550.80 47.02L550.80 65.50ZM557.10 66.90L555.70 66.90L555.70 55.42L550.52 55.42L550.52 54.02L557.10 54.02L557.10 66.90ZM554.30 66.90L552.90 66.90L552.90 58.22L550.52 58.22L550.52 56.82L554.30 56.82L554.30 66.90ZM567.60 65.50L559.20 65.50L559.20 47.02L567.60 47.02L567.60 65.50ZM576.00 65.50L567.60 65.50L567.60 47.02L576.00 47.02L576.00 65.50ZM579.50 66.90L578.10 66.90L578.10 54.02L584.68 54.02L584.68 55.42L579.50 55.42L579.50 66.90ZM582.30 66.90L580.90 66.90L580.90 56.82L584.68 56.82L584.68 58.22L582.30 58.22L582.30 66.90ZM590.70 58.22L584.12 58.22L584.12 56.82L589.30 56.82L589.30 45.62L590.70 45.62L590.70 58.22ZM587.90 55.42L584.12 55.42L584.12 54.02L586.50 54.02L586.50 45.62L587.90 45.62L587.90 55.42Z M38.40 81.60L30 81.60L30 63.12L38.40 63.12L38.40 81.60ZM46.80 81.60L38.40 81.60L38.40 63.12L46.80 63.12L46.80 81.60ZM53.10 83L51.70 83L51.70 61.72L53.10 61.72L53.10 83ZM50.30 83L48.90 83L48.90 61.72L50.30 61.72L50.30 83ZM88.80 81.60L80.40 81.60L80.40 63.12L88.80 63.12L88.80 81.60ZM97.20 81.60L88.80 81.60L88.80 63.12L97.20 63.12L97.20 81.60ZM103.50 83L102.10 83L102.10 61.72L103.50 61.72L103.50 83ZM100.70 83L99.30 83L99.30 61.72L100.70 61.72L100.70 83ZM114.00 81.60L105.60 81.60L105.60 63.12L114.00 63.12L114.00 81.60ZM122.40 81.60L114.00 81.60L114.00 63.12L122.40 63.12L122.40 81.60ZM130.80 81.60L122.40 81.60L122.40 63.12L130.80 63.12L130.80 81.60ZM139.20 81.60L130.80 81.60L130.80 63.12L139.20 63.12L139.20 81.60ZM147.60 81.60L139.20 81.60L139.20 63.12L147.60 63.12L147.60 81.60ZM153.90 83L152.50 83L152.50 71.52L147.32 71.52L147.32 70.12L153.90 70.12L153.90 83ZM151.10 83L149.70 83L149.70 74.32L147.32 74.32L147.32 72.92L151.10 72.92L151.10 83ZM181.20 81.60L172.80 81.60L172.80 63.12L181.20 63.12L181.20 81.60ZM189.60 81.60L181.20 81.60L181.20 63.12L189.60 63.12L189.60 81.60ZM198.00 81.60L189.60 81.60L189.60 63.12L198.00 63.12L198.00 81.60ZM206.40 81.60L198.00 81.60L198.00 63.12L206.40 63.12L206.40 81.60ZM214.80 81.60L206.40 81.60L206.40 63.12L214.80 63.12L214.80 81.60ZM223.20 81.60L214.80 81.60L214.80 63.12L223.20 63.12L223.20 81.60ZM226.70 83L225.30 83L225.30 70.12L231.88 70.12L231.88 71.52L226.70 71.52L226.70 83ZM229.50 83L228.10 83L228.10 72.92L231.88 72.92L231.88 74.32L229.50 74.32L229.50 83ZM237.90 74.32L231.32 74.32L231.32 72.92L236.50 72.92L236.50 61.72L237.90 61.72L237.90 74.32ZM235.10 71.52L231.32 71.52L231.32 70.12L233.70 70.12L233.70 61.72L235.10 61.72L235.10 71.52ZM273.60 81.60L265.20 81.60L265.20 63.12L273.60 63.12L273.60 81.60ZM282.00 81.60L273.60 81.60L273.60 63.12L282.00 63.12L282.00 81.60ZM288.30 83L286.90 83L286.90 61.72L288.30 61.72L288.30 83ZM285.50 83L284.10 83L284.10 61.72L285.50 61.72L285.50 83ZM324.00 81.60L315.60 81.60L315.60 63.12L324.00 63.12L324.00 81.60ZM332.40 81.60L324.00 81.60L324.00 63.12L332.40 63.12L332.40 81.60ZM340.80 81.60L332.40 81.60L332.40 63.12L340.80 63.12L340.80 81.60ZM349.20 81.60L340.80 81.60L340.80 63.12L349.20 63.12L349.20 81.60ZM357.60 81.60L349.20 81.60L349.20 63.12L357.60 63.12L357.60 81.60ZM366.00 81.60L357.60 81.60L357.60 63.12L366.00 63.12L366.00 81.60ZM374.40 81.60L366.00 81.60L366.00 63.12L374.40 63.12L374.40 81.60ZM380.70 83L379.30 83L379.30 61.72L380.70 61.72L380.70 83ZM377.90 83L376.50 83L376.50 61.72L377.90 61.72L377.90 83ZM391.20 81.60L382.80 81.60L382.80 63.12L391.20 63.12L391.20 81.60ZM399.60 81.60L391.20 81.60L391.20 63.12L399.60 63.12L399.60 81.60ZM408.00 81.60L399.60 81.60L399.60 63.12L408.00 63.12L408.00 81.60ZM416.40 81.60L408.00 81.60L408.00 63.12L416.40 63.12L416.40 81.60ZM424.80 81.60L416.40 81.60L416.40 63.12L424.80 63.12L424.80 81.60ZM433.20 81.60L424.80 81.60L424.80 63.12L433.20 63.12L433.20 81.60ZM441.60 81.60L433.20 81.60L433.20 63.12L441.60 63.12L441.60 81.60ZM447.90 83L446.50 83L446.50 61.72L447.90 61.72L447.90 83ZM445.10 83L443.70 83L443.70 61.72L445.10 61.72L445.10 83ZM458.40 81.60L450.00 81.60L450.00 63.12L458.40 63.12L458.40 81.60ZM466.80 81.60L458.40 81.60L458.40 63.12L466.80 63.12L466.80 81.60ZM473.10 83L471.70 83L471.70 61.72L473.10 61.72L473.10 83ZM470.30 83L468.90 83L468.90 61.72L470.30 61.72L470.30 83ZM508.80 81.60L500.40 81.60L500.40 63.12L508.80 63.12L508.80 81.60ZM517.20 81.60L508.80 81.60L508.80 63.12L517.20 63.12L517.20 81.60ZM523.50 83L522.10 83L522.10 61.72L523.50 61.72L523.50 83ZM520.70 83L519.30 83L519.30 61.72L520.70 61.72L520.70 83ZM542.68 74.32L536.10 74.32L536.10 61.72L537.50 61.72L537.50 72.92L542.68 72.92L542.68 74.32ZM542.68 71.52L538.90 71.52L538.90 61.72L540.30 61.72L540.30 70.12L542.68 70.12L542.68 71.52ZM550.80 81.60L542.40 81.60L542.40 63.12L550.80 63.12L550.80 81.60ZM559.20 81.60L550.80 81.60L550.80 63.12L559.20 63.12L559.20 81.60ZM567.60 81.60L559.20 81.60L559.20 63.12L567.60 63.12L567.60 81.60ZM571.10 83L569.70 83L569.70 70.12L576.28 70.12L576.28 71.52L571.10 71.52L571.10 83ZM573.90 83L572.50 83L572.50 72.92L576.28 72.92L576.28 74.32L573.90 74.32L573.90 83ZM582.30 74.32L575.72 74.32L575.72 72.92L580.90 72.92L580.90 61.72L582.30 61.72L582.30 74.32ZM579.50 71.52L575.72 71.52L575.72 70.12L578.10 70.12L578.10 61.72L579.50 61.72L579.50 71.52Z M38.68 90.42L32.10 90.42L32.10 77.82L33.50 77.82L33.50 89.02L38.68 89.02L38.68 90.42ZM38.68 87.62L34.90 87.62L34.90 77.82L36.30 77.82L36.30 86.22L38.68 86.22L38.68 87.62ZM46.80 97.70L38.40 97.70L38.40 79.22L46.80 79.22L46.80 97.70ZM55.20 97.70L46.80 97.70L46.80 79.22L55.20 79.22L55.20 97.70ZM61.50 99.10L60.10 99.10L60.10 87.62L54.92 87.62L54.92 86.22L61.50 86.22L61.50 99.10ZM58.70 99.10L57.30 99.10L57.30 90.42L54.92 90.42L54.92 89.02L58.70 89.02L58.70 99.10ZM80.40 97.70L72 97.70L72 79.22L80.40 79.22L80.40 97.70ZM88.80 97.70L80.40 97.70L80.40 79.22L88.80 79.22L88.80 97.70ZM92.30 99.10L90.90 99.10L90.90 86.22L97.48 86.22L97.48 87.62L92.30 87.62L92.30 99.10ZM95.10 99.10L93.70 99.10L93.70 89.02L97.48 89.02L97.48 90.42L95.10 90.42L95.10 99.10ZM103.50 90.42L96.92 90.42L96.92 89.02L102.10 89.02L102.10 77.82L103.50 77.82L103.50 90.42ZM100.70 87.62L96.92 87.62L96.92 86.22L99.30 86.22L99.30 77.82L100.70 77.82L100.70 87.62ZM114.00 97.70L105.60 97.70L105.60 79.22L114.00 79.22L114.00 97.70ZM122.40 97.70L114.00 97.70L114.00 79.22L122.40 79.22L122.40 97.70ZM125.90 99.10L124.50 99.10L124.50 86.22L131.08 86.22L131.08 87.62L125.90 87.62L125.90 99.10ZM128.70 99.10L127.30 99.10L127.30 89.02L131.08 89.02L131.08 90.42L128.70 90.42L128.70 99.10ZM139.48 87.62L130.52 87.62L130.52 86.22L139.48 86.22L139.48 87.62ZM139.48 90.42L130.52 90.42L130.52 89.02L139.48 89.02L139.48 90.42ZM147.88 87.62L138.92 87.62L138.92 86.22L147.88 86.22L147.88 87.62ZM147.88 90.42L138.92 90.42L138.92 89.02L147.88 89.02L147.88 90.42ZM153.90 90.42L147.32 90.42L147.32 89.02L152.50 89.02L152.50 77.82L153.90 77.82L153.90 90.42ZM151.10 87.62L147.32 87.62L147.32 86.22L149.70 86.22L149.70 77.82L151.10 77.82L151.10 87.62ZM181.20 97.70L172.80 97.70L172.80 79.22L181.20 79.22L181.20 97.70ZM189.60 97.70L181.20 97.70L181.20 79.22L189.60 79.22L189.60 97.70ZM193.10 99.10L191.70 99.10L191.70 86.22L198.28 86.22L198.28 87.62L193.10 87.62L193.10 99.10ZM195.90 99.10L194.50 99.10L194.50 89.02L198.28 89.02L198.28 90.42L195.90 90.42L195.90 99.10ZM206.68 87.62L197.72 87.62L197.72 86.22L206.68 86.22L206.68 87.62ZM206.68 90.42L197.72 90.42L197.72 89.02L206.68 89.02L206.68 90.42ZM215.08 87.62L206.12 87.62L206.12 86.22L215.08 86.22L215.08 87.62ZM215.08 90.42L206.12 90.42L206.12 89.02L215.08 89.02L215.08 90.42ZM223.20 97.70L214.80 97.70L214.80 79.22L223.20 79.22L223.20 97.70ZM231.60 97.70L223.20 97.70L223.20 79.22L231.60 79.22L231.60 97.70ZM237.90 99.10L236.50 99.10L236.50 87.62L231.32 87.62L231.32 86.22L237.90 86.22L237.90 99.10ZM235.10 99.10L233.70 99.10L233.70 90.42L231.32 90.42L231.32 89.02L235.10 89.02L235.10 99.10ZM273.60 97.70L265.20 97.70L265.20 79.22L273.60 79.22L273.60 97.70ZM282.00 97.70L273.60 97.70L273.60 79.22L282.00 79.22L282.00 97.70ZM288.30 99.10L286.90 99.10L286.90 77.82L288.30 77.82L288.30 99.10ZM285.50 99.10L284.10 99.10L284.10 77.82L285.50 77.82L285.50 99.10ZM324.00 97.70L315.60 97.70L315.60 79.22L324.00 79.22L324.00 97.70ZM332.40 97.70L324.00 97.70L324.00 79.22L332.40 79.22L332.40 97.70ZM335.90 99.10L334.50 99.10L334.50 86.22L341.08 86.22L341.08 87.62L335.90 87.62L335.90 99.10ZM338.70 99.10L337.30 99.10L337.30 89.02L341.08 89.02L341.08 90.42L338.70 90.42L338.70 99.10ZM349.48 87.62L340.52 87.62L340.52 86.22L349.48 86.22L349.48 87.62ZM349.48 90.42L340.52 90.42L340.52 89.02L349.48 89.02L349.48 90.42ZM357.88 87.62L348.92 87.62L348.92 86.22L357.88 86.22L357.88 87.62ZM357.88 90.42L348.92 90.42L348.92 89.02L357.88 89.02L357.88 90.42ZM366.00 97.70L357.60 97.70L357.60 79.22L366.00 79.22L366.00 97.70ZM374.40 97.70L366.00 97.70L366.00 79.22L374.40 79.22L374.40 97.70ZM380.70 99.10L379.30 99.10L379.30 77.82L380.70 77.82L380.70 99.10ZM377.90 99.10L376.50 99.10L376.50 77.82L377.90 77.82L377.90 99.10ZM391.20 97.70L382.80 97.70L382.80 79.22L391.20 79.22L391.20 97.70ZM399.60 97.70L391.20 97.70L391.20 79.22L399.60 79.22L399.60 97.70ZM403.10 99.10L401.70 99.10L401.70 86.22L408.28 86.22L408.28 87.62L403.10 87.62L403.10 99.10ZM405.90 99.10L404.50 99.10L404.50 89.02L408.28 89.02L408.28 90.42L405.90 90.42L405.90 99.10ZM416.68 87.62L407.72 87.62L407.72 86.22L416.68 86.22L416.68 87.62ZM416.68 90.42L407.72 90.42L407.72 89.02L416.68 89.02L416.68 90.42ZM425.08 87.62L416.12 87.62L416.12 86.22L425.08 86.22L425.08 87.62ZM425.08 90.42L416.12 90.42L416.12 89.02L425.08 89.02L425.08 90.42ZM433.20 97.70L424.80 97.70L424.80 79.22L433.20 79.22L433.20 97.70ZM441.60 97.70L433.20 97.70L433.20 79.22L441.60 79.22L441.60 97.70ZM447.90 99.10L446.50 99.10L446.50 77.82L447.90 77.82L447.90 99.10ZM445.10 99.10L443.70 99.10L443.70 77.82L445.10 77.82L445.10 99.10ZM458.40 97.70L450.00 97.70L450.00 79.22L458.40 79.22L458.40 97.70ZM466.80 97.70L458.40 97.70L458.40 79.22L466.80 79.22L466.80 97.70ZM473.10 99.10L471.70 99.10L471.70 77.82L473.10 77.82L473.10 99.10ZM470.30 99.10L468.90 99.10L468.90 77.82L470.30 77.82L470.30 99.10ZM508.80 97.70L500.40 97.70L500.40 79.22L508.80 79.22L508.80 97.70ZM517.20 97.70L508.80 97.70L508.80 79.22L517.20 79.22L517.20 97.70ZM523.50 99.10L522.10 99.10L522.10 77.82L523.50 77.82L523.50 99.10ZM520.70 99.10L519.30 99.10L519.30 77.82L520.70 77.82L520.70 99.10ZM542.40 97.70L534.00 97.70L534.00 79.22L542.40 79.22L542.40 97.70ZM550.80 97.70L542.40 97.70L542.40 79.22L550.80 79.22L550.80 97.70ZM554.30 99.10L552.90 99.10L552.90 86.22L559.48 86.22L559.48 87.62L554.30 87.62L554.30 99.10ZM557.10 99.10L555.70 99.10L555.70 89.02L559.48 89.02L559.48 90.42L557.10 90.42L557.10 99.10ZM567.60 97.70L559.20 97.70L559.20 79.22L567.60 79.22L567.60 97.70ZM576.00 97.70L567.60 97.70L567.60 79.22L576.00 79.22L576.00 97.70ZM582.30 99.10L580.90 99.10L580.90 87.62L575.72 87.62L575.72 86.22L582.30 86.22L582.30 99.10ZM579.50 99.10L578.10 99.10L578.10 90.42L575.72 90.42L575.72 89.02L579.50 89.02L579.50 99.10Z M47.08 106.52L40.50 106.52L40.50 93.92L41.90 93.92L41.90 105.12L47.08 105.12L47.08 106.52ZM47.08 103.72L43.30 103.72L43.30 93.92L44.70 93.92L44.70 102.32L47.08 102.32L47.08 103.72ZM55.20 113.80L46.80 113.80L46.80 95.32L55.20 95.32L55.20 113.80ZM63.60 113.80L55.20 113.80L55.20 95.32L63.60 95.32L63.60 113.80ZM72 113.80L63.60 113.80L63.60 95.32L72 95.32L72 113.80ZM80.40 113.80L72 113.80L72 95.32L80.40 95.32L80.40 113.80ZM83.90 115.20L82.50 115.20L82.50 102.32L89.08 102.32L89.08 103.72L83.90 103.72L83.90 115.20ZM86.70 115.20L85.30 115.20L85.30 105.12L89.08 105.12L89.08 106.52L86.70 106.52L86.70 115.20ZM95.10 106.52L88.52 106.52L88.52 105.12L93.70 105.12L93.70 93.92L95.10 93.92L95.10 106.52ZM92.30 103.72L88.52 103.72L88.52 102.32L90.90 102.32L90.90 93.92L92.30 93.92L92.30 103.72ZM114.00 113.80L105.60 113.80L105.60 95.32L114.00 95.32L114.00 113.80ZM122.40 113.80L114.00 113.80L114.00 95.32L122.40 95.32L122.40 113.80ZM130.80 113.80L122.40 113.80L122.40 95.32L130.80 95.32L130.80 113.80ZM139.20 113.80L130.80 113.80L130.80 95.32L139.20 95.32L139.20 113.80ZM147.60 113.80L139.20 113.80L139.20 95.32L147.60 95.32L147.60 113.80ZM156.00 113.80L147.60 113.80L147.60 95.32L156.00 95.32L156.00 113.80ZM164.40 113.80L156.00 113.80L156.00 95.32L164.40 95.32L164.40 113.80ZM170.70 115.20L169.30 115.20L169.30 103.72L164.12 103.72L164.12 102.32L170.70 102.32L170.70 115.20ZM167.90 115.20L166.50 115.20L166.50 106.52L164.12 106.52L164.12 105.12L167.90 105.12L167.90 115.20ZM181.20 113.80L172.80 113.80L172.80 95.32L181.20 95.32L181.20 113.80ZM189.60 113.80L181.20 113.80L181.20 95.32L189.60 95.32L189.60 113.80ZM195.90 115.20L194.50 115.20L194.50 93.92L195.90 93.92L195.90 115.20ZM193.10 115.20L191.70 115.20L191.70 93.92L193.10 93.92L193.10 115.20ZM223.20 113.80L214.80 113.80L214.80 95.32L223.20 95.32L223.20 113.80ZM231.60 113.80L223.20 113.80L223.20 95.32L231.60 95.32L231.60 113.80ZM237.90 115.20L236.50 115.20L236.50 93.92L237.90 93.92L237.90 115.20ZM235.10 115.20L233.70 115.20L233.70 93.92L235.10 93.92L235.10 115.20ZM273.60 113.80L265.20 113.80L265.20 95.32L273.60 95.32L273.60 113.80ZM282.00 113.80L273.60 113.80L273.60 95.32L282.00 95.32L282.00 113.80ZM288.30 115.20L286.90 115.20L286.90 93.92L288.30 93.92L288.30 115.20ZM285.50 115.20L284.10 115.20L284.10 93.92L285.50 93.92L285.50 115.20ZM324.00 113.80L315.60 113.80L315.60 95.32L324.00 95.32L324.00 113.80ZM332.40 113.80L324.00 113.80L324.00 95.32L332.40 95.32L332.40 113.80ZM338.70 115.20L337.30 115.20L337.30 93.92L338.70 93.92L338.70 115.20ZM335.90 115.20L334.50 115.20L334.50 93.92L335.90 93.92L335.90 115.20ZM366.00 113.80L357.60 113.80L357.60 95.32L366.00 95.32L366.00 113.80ZM374.40 113.80L366.00 113.80L366.00 95.32L374.40 95.32L374.40 113.80ZM380.70 115.20L379.30 115.20L379.30 93.92L380.70 93.92L380.70 115.20ZM377.90 115.20L376.50 115.20L376.50 93.92L377.90 93.92L377.90 115.20ZM391.20 113.80L382.80 113.80L382.80 95.32L391.20 95.32L391.20 113.80ZM399.60 113.80L391.20 113.80L391.20 95.32L399.60 95.32L399.60 113.80ZM405.90 115.20L404.50 115.20L404.50 93.92L405.90 93.92L405.90 115.20ZM403.10 115.20L401.70 115.20L401.70 93.92L403.10 93.92L403.10 115.20ZM433.20 113.80L424.80 113.80L424.80 95.32L433.20 95.32L433.20 113.80ZM441.60 113.80L433.20 113.80L433.20 95.32L441.60 95.32L441.60 113.80ZM447.90 115.20L446.50 115.20L446.50 93.92L447.90 93.92L447.90 115.20ZM445.10 115.20L443.70 115.20L443.70 93.92L445.10 93.92L445.10 115.20ZM458.68 106.52L452.10 106.52L452.10 93.92L453.50 93.92L453.50 105.12L458.68 105.12L458.68 106.52ZM458.68 103.72L454.90 103.72L454.90 93.92L456.30 93.92L456.30 102.32L458.68 102.32L458.68 103.72ZM466.80 113.80L458.40 113.80L458.40 95.32L466.80 95.32L466.80 113.80ZM475.20 113.80L466.80 113.80L466.80 95.32L475.20 95.32L475.20 113.80ZM483.60 113.80L475.20 113.80L475.20 95.32L483.60 95.32L483.60 113.80ZM492.00 113.80L483.60 113.80L483.60 95.32L492.00 95.32L492.00 113.80ZM500.40 113.80L492.00 113.80L492.00 95.32L500.40 95.32L500.40 113.80ZM508.80 113.80L500.40 113.80L500.40 95.32L508.80 95.32L508.80 113.80ZM512.30 115.20L510.90 115.20L510.90 102.32L517.48 102.32L517.48 103.72L512.30 103.72L512.30 115.20ZM515.10 115.20L513.70 115.20L513.70 105.12L517.48 105.12L517.48 106.52L515.10 106.52L515.10 115.20ZM523.50 106.52L516.92 106.52L516.92 105.12L522.10 105.12L522.10 93.92L523.50 93.92L523.50 106.52ZM520.70 103.72L516.92 103.72L516.92 102.32L519.30 102.32L519.30 93.92L520.70 93.92L520.70 103.72ZM534.00 113.80L525.60 113.80L525.60 95.32L534.00 95.32L534.00 113.80ZM542.40 113.80L534.00 113.80L534.00 95.32L542.40 95.32L542.40 113.80ZM545.90 115.20L544.50 115.20L544.50 102.32L551.08 102.32L551.08 103.72L545.90 103.72L545.90 115.20ZM548.70 115.20L547.30 115.20L547.30 105.12L551.08 105.12L551.08 106.52L548.70 106.52L548.70 115.20ZM557.10 106.52L550.52 106.52L550.52 105.12L555.70 105.12L555.70 93.92L557.10 93.92L557.10 106.52ZM554.30 103.72L550.52 103.72L550.52 102.32L552.90 102.32L552.90 93.92L554.30 93.92L554.30 103.72ZM576.00 113.80L567.60 113.80L567.60 95.32L576.00 95.32L576.00 113.80ZM584.40 113.80L576.00 113.80L576.00 95.32L584.40 95.32L584.40 113.80ZM590.70 115.20L589.30 115.20L589.30 103.72L584.12 103.72L584.12 102.32L590.70 102.32L590.70 115.20ZM587.90 115.20L586.50 115.20L586.50 106.52L584.12 106.52L584.12 105.12L587.90 105.12L587.90 115.20Z M55.48 122.62L48.90 122.62L48.90 110.02L50.30 110.02L50.30 121.22L55.48 121.22L55.48 122.62ZM55.48 119.82L51.70 119.82L51.70 110.02L53.10 110.02L53.10 118.42L55.48 118.42L55.48 119.82ZM63.88 119.82L54.92 119.82L54.92 118.42L63.88 118.42L63.88 119.82ZM63.88 122.62L54.92 122.62L54.92 121.22L63.88 121.22L63.88 122.62ZM72.28 119.82L63.32 119.82L63.32 118.42L72.28 118.42L72.28 119.82ZM72.28 122.62L63.32 122.62L63.32 121.22L72.28 121.22L72.28 122.62ZM80.68 119.82L71.72 119.82L71.72 118.42L80.68 118.42L80.68 119.82ZM80.68 122.62L71.72 122.62L71.72 121.22L80.68 121.22L80.68 122.62ZM86.70 122.62L80.12 122.62L80.12 121.22L85.30 121.22L85.30 110.02L86.70 110.02L86.70 122.62ZM83.90 119.82L80.12 119.82L80.12 118.42L82.50 118.42L82.50 110.02L83.90 110.02L83.90 119.82ZM114.28 122.62L107.70 122.62L107.70 110.02L109.10 110.02L109.10 121.22L114.28 121.22L114.28 122.62ZM114.28 119.82L110.50 119.82L110.50 110.02L111.90 110.02L111.90 118.42L114.28 118.42L114.28 119.82ZM122.68 119.82L113.72 119.82L113.72 118.42L122.68 118.42L122.68 119.82ZM122.68 122.62L113.72 122.62L113.72 121.22L122.68 121.22L122.68 122.62ZM131.08 119.82L122.12 119.82L122.12 118.42L131.08 118.42L131.08 119.82ZM131.08 122.62L122.12 122.62L122.12 121.22L131.08 121.22L131.08 122.62ZM139.48 119.82L130.52 119.82L130.52 118.42L139.48 118.42L139.48 119.82ZM139.48 122.62L130.52 122.62L130.52 121.22L139.48 121.22L139.48 122.62ZM147.88 119.82L138.92 119.82L138.92 118.42L147.88 118.42L147.88 119.82ZM147.88 122.62L138.92 122.62L138.92 121.22L147.88 121.22L147.88 122.62ZM156.28 119.82L147.32 119.82L147.32 118.42L156.28 118.42L156.28 119.82ZM156.28 122.62L147.32 122.62L147.32 121.22L156.28 121.22L156.28 122.62ZM164.68 119.82L155.72 119.82L155.72 118.42L164.68 118.42L164.68 119.82ZM164.68 122.62L155.72 122.62L155.72 121.22L164.68 121.22L164.68 122.62ZM170.70 122.62L164.12 122.62L164.12 121.22L169.30 121.22L169.30 110.02L170.70 110.02L170.70 122.62ZM167.90 119.82L164.12 119.82L164.12 118.42L166.50 118.42L166.50 110.02L167.90 110.02L167.90 119.82ZM181.48 122.62L174.90 122.62L174.90 110.02L176.30 110.02L176.30 121.22L181.48 121.22L181.48 122.62ZM181.48 119.82L177.70 119.82L177.70 110.02L179.10 110.02L179.10 118.42L181.48 118.42L181.48 119.82ZM189.88 119.82L180.92 119.82L180.92 118.42L189.88 118.42L189.88 119.82ZM189.88 122.62L180.92 122.62L180.92 121.22L189.88 121.22L189.88 122.62ZM195.90 122.62L189.32 122.62L189.32 121.22L194.50 121.22L194.50 110.02L195.90 110.02L195.90 122.62ZM193.10 119.82L189.32 119.82L189.32 118.42L191.70 118.42L191.70 110.02L193.10 110.02L193.10 119.82ZM223.48 122.62L216.90 122.62L216.90 110.02L218.30 110.02L218.30 121.22L223.48 121.22L223.48 122.62ZM223.48 119.82L219.70 119.82L219.70 110.02L221.10 110.02L221.10 118.42L223.48 118.42L223.48 119.82ZM231.88 119.82L222.92 119.82L222.92 118.42L231.88 118.42L231.88 119.82ZM231.88 122.62L222.92 122.62L222.92 121.22L231.88 121.22L231.88 122.62ZM237.90 122.62L231.32 122.62L231.32 121.22L236.50 121.22L236.50 110.02L237.90 110.02L237.90 122.62ZM235.10 119.82L231.32 119.82L231.32 118.42L233.70 118.42L233.70 110.02L235.10 110.02L235.10 119.82ZM273.88 122.62L267.30 122.62L267.30 110.02L268.70 110.02L268.70 121.22L273.88 121.22L273.88 122.62ZM273.88 119.82L270.10 119.82L270.10 110.02L271.50 110.02L271.50 118.42L273.88 118.42L273.88 119.82ZM282.28 119.82L273.32 119.82L273.32 118.42L282.28 118.42L282.28 119.82ZM282.28 122.62L273.32 122.62L273.32 121.22L282.28 121.22L282.28 122.62ZM288.30 122.62L281.72 122.62L281.72 121.22L286.90 121.22L286.90 110.02L288.30 110.02L288.30 122.62ZM285.50 119.82L281.72 119.82L281.72 118.42L284.10 118.42L284.10 110.02L285.50 110.02L285.50 119.82ZM324.28 122.62L317.70 122.62L317.70 110.02L319.10 110.02L319.10 121.22L324.28 121.22L324.28 122.62ZM324.28 119.82L320.50 119.82L320.50 110.02L321.90 110.02L321.90 118.42L324.28 118.42L324.28 119.82ZM332.68 119.82L323.72 119.82L323.72 118.42L332.68 118.42L332.68 119.82ZM332.68 122.62L323.72 122.62L323.72 121.22L332.68 121.22L332.68 122.62ZM338.70 122.62L332.12 122.62L332.12 121.22L337.30 121.22L337.30 110.02L338.70 110.02L338.70 122.62ZM335.90 119.82L332.12 119.82L332.12 118.42L334.50 118.42L334.50 110.02L335.90 110.02L335.90 119.82ZM366.28 122.62L359.70 122.62L359.70 110.02L361.10 110.02L361.10 121.22L366.28 121.22L366.28 122.62ZM366.28 119.82L362.50 119.82L362.50 110.02L363.90 110.02L363.90 118.42L366.28 118.42L366.28 119.82ZM374.68 119.82L365.72 119.82L365.72 118.42L374.68 118.42L374.68 119.82ZM374.68 122.62L365.72 122.62L365.72 121.22L374.68 121.22L374.68 122.62ZM380.70 122.62L374.12 122.62L374.12 121.22L379.30 121.22L379.30 110.02L380.70 110.02L380.70 122.62ZM377.90 119.82L374.12 119.82L374.12 118.42L376.50 118.42L376.50 110.02L377.90 110.02L377.90 119.82ZM391.48 122.62L384.90 122.62L384.90 110.02L386.30 110.02L386.30 121.22L391.48 121.22L391.48 122.62ZM391.48 119.82L387.70 119.82L387.70 110.02L389.10 110.02L389.10 118.42L391.48 118.42L391.48 119.82ZM399.88 119.82L390.92 119.82L390.92 118.42L399.88 118.42L399.88 119.82ZM399.88 122.62L390.92 122.62L390.92 121.22L399.88 121.22L399.88 122.62ZM405.90 122.62L399.32 122.62L399.32 121.22L404.50 121.22L404.50 110.02L405.90 110.02L405.90 122.62ZM403.10 119.82L399.32 119.82L399.32 118.42L401.70 118.42L401.70 110.02L403.10 110.02L403.10 119.82ZM433.48 122.62L426.90 122.62L426.90 110.02L428.30 110.02L428.30 121.22L433.48 121.22L433.48 122.62ZM433.48 119.82L429.70 119.82L429.70 110.02L431.10 110.02L431.10 118.42L433.48 118.42L433.48 119.82ZM441.88 119.82L432.92 119.82L432.92 118.42L441.88 118.42L441.88 119.82ZM441.88 122.62L432.92 122.62L432.92 121.22L441.88 121.22L441.88 122.62ZM447.90 122.62L441.32 122.62L441.32 121.22L446.50 121.22L446.50 110.02L447.90 110.02L447.90 122.62ZM445.10 119.82L441.32 119.82L441.32 118.42L443.70 118.42L443.70 110.02L445.10 110.02L445.10 119.82ZM467.08 122.62L460.50 122.62L460.50 110.02L461.90 110.02L461.90 121.22L467.08 121.22L467.08 122.62ZM467.08 119.82L463.30 119.82L463.30 110.02L464.70 110.02L464.70 118.42L467.08 118.42L467.08 119.82ZM475.48 119.82L466.52 119.82L466.52 118.42L475.48 118.42L475.48 119.82ZM475.48 122.62L466.52 122.62L466.52 121.22L475.48 121.22L475.48 122.62ZM483.88 119.82L474.92 119.82L474.92 118.42L483.88 118.42L483.88 119.82ZM483.88 122.62L474.92 122.62L474.92 121.22L483.88 121.22L483.88 122.62ZM492.28 119.82L483.32 119.82L483.32 118.42L492.28 118.42L492.28 119.82ZM492.28 122.62L483.32 122.62L483.32 121.22L492.28 121.22L492.28 122.62ZM500.68 119.82L491.72 119.82L491.72 118.42L500.68 118.42L500.68 119.82ZM500.68 122.62L491.72 122.62L491.72 121.22L500.68 121.22L500.68 122.62ZM509.08 119.82L500.12 119.82L500.12 118.42L509.08 118.42L509.08 119.82ZM509.08 122.62L500.12 122.62L500.12 121.22L509.08 121.22L509.08 122.62ZM515.10 122.62L508.52 122.62L508.52 121.22L513.70 121.22L513.70 110.02L515.10 110.02L515.10 122.62ZM512.30 119.82L508.52 119.82L508.52 118.42L510.90 118.42L510.90 110.02L512.30 110.02L512.30 119.82ZM534.28 122.62L527.70 122.62L527.70 110.02L529.10 110.02L529.10 121.22L534.28 121.22L534.28 122.62ZM534.28 119.82L530.50 119.82L530.50 110.02L531.90 110.02L531.90 118.42L534.28 118.42L534.28 119.82ZM542.68 119.82L533.72 119.82L533.72 118.42L542.68 118.42L542.68 119.82ZM542.68 122.62L533.72 122.62L533.72 121.22L542.68 121.22L542.68 122.62ZM548.70 122.62L542.12 122.62L542.12 121.22L547.30 121.22L547.30 110.02L548.70 110.02L548.70 122.62ZM545.90 119.82L542.12 119.82L542.12 118.42L544.50 118.42L544.50 110.02L545.90 110.02L545.90 119.82ZM576.28 122.62L569.70 122.62L569.70 110.02L571.10 110.02L571.10 121.22L576.28 121.22L576.28 122.62ZM576.28 119.82L572.50 119.82L572.50 110.02L573.90 110.02L573.90 118.42L576.28 118.42L576.28 119.82ZM584.68 119.82L575.72 119.82L575.72 118.42L584.68 118.42L584.68 119.82ZM584.68 122.62L575.72 122.62L575.72 121.22L584.68 121.22L584.68 122.62ZM590.70 122.62L584.12 122.62L584.12 121.22L589.30 121.22L589.30 110.02L590.70 110.02L590.70 122.62ZM587.90 119.82L584.12 119.82L584.12 118.42L586.50 118.42L586.50 110.02L587.90 110.02L587.90 119.82Z" fill="#12FFF7"/>
</svg>